<svg xmlns="http://www.w3.org/2000/svg" viewBox="0 0 62.66 62.66"><defs><style>.cls-1{fill:#0bb14b;}.cls-2{fill:#fff;}</style></defs><g id="Layer_2" data-name="Layer 2"><g id="Logo"><rect class="cls-1" width="62.66" height="62.66" rx="31.33"/><path class="cls-2" d="M32,30.32s2.57.47,3.52,2.23a15.82,15.82,0,0,0,5.43-3.69,9.13,9.13,0,0,0,2.76-6.39,7.51,7.51,0,0,0-.12-1.37,7,7,0,0,0-2.76-4.34,11.41,11.41,0,0,0-7.2-2.23,16.3,16.3,0,0,0-7.14,1.57h0a15.9,15.9,0,0,0-3,1.85Q19,21.38,19,26t4.6,7.2a17.9,17.9,0,0,0-1.81.78l2.26,1.64a21.6,21.6,0,0,1,2-.9,10.53,10.53,0,0,1,4.64,2.42.75.75,0,0,1,.17.14,5.42,5.42,0,0,1,2.09,4,4.56,4.56,0,0,1-2.25,3.68,8.2,8.2,0,0,1-4.3,1.58v1.64a12.39,12.39,0,0,0,7.38-2.58A8.23,8.23,0,0,0,37,38.92a6.08,6.08,0,0,0-1.05-3.46h0c-.12-.26-.25-.51-.39-.76A17.82,17.82,0,0,0,34.36,33s-.73-1.52-3.58-2.18a21,21,0,0,1-5.16-2,4.69,4.69,0,0,1-2.39-4.23,6.84,6.84,0,0,1,2.85-5.89,10.61,10.61,0,0,1,4.07-1.86,10,10,0,0,1,2.05-.21,7.64,7.64,0,0,1,5.09,1.54,4.85,4.85,0,0,1,1.81,3.89,6.39,6.39,0,0,1-.19,1.58C38.27,26.31,35.94,28.53,32,30.32Z"/></g></g></svg>