<svg xmlns="http://www.w3.org/2000/svg" viewBox="0 0 143.56 52.18"><defs><style>.cls-1{fill:#0f2315;}.cls-2{font-size:48px;fill:#0bb14b;font-family:MyriadPro-Regular, Myriad Pro;}</style></defs><g id="Layer_2" data-name="Layer 2"><g id="Logo"><g id="Basic_Logo" data-name="Basic Logo"><path class="cls-1" d="M52.29,25.2q.36,0,.36,1.17a5.73,5.73,0,0,1-1,2.79q-1,1.62-1.89,3.06a39.38,39.38,0,0,1-2.49,3.36,18.37,18.37,0,0,1-3.06,3.06,12.81,12.81,0,0,1-7.59,2.76,9.29,9.29,0,0,1-6.15-1.95q-2.34-2-2.34-6a17,17,0,0,1,4.5-11.34q4.5-5.22,10.5-5.22a6.35,6.35,0,0,1,4.32,1.41,4.34,4.34,0,0,1,1.62,3.39,6.18,6.18,0,0,1-3.18,5.4,13.59,13.59,0,0,1-7.5,2,8,8,0,0,1-3.72-.66,15.76,15.76,0,0,0-1.14,5.4q0,5,4.26,5A8.85,8.85,0,0,0,43,37a22.65,22.65,0,0,0,4.56-4.38,48.79,48.79,0,0,0,4.29-7Q52.11,25.2,52.29,25.2Zm-6.36-4.74a1.51,1.51,0,0,0-1.68-1.74q-2.34,0-5.22,2.88t-2.88,4.68q0,1.2,2.28,1.2a7.36,7.36,0,0,0,4.77-2.22A7.38,7.38,0,0,0,45.93,20.46Z"/><path class="cls-1" d="M73.65,25.44q.36,0,.36,1.14a5.9,5.9,0,0,1-1,2.82Q72,31.08,71.46,32t-1.95,2.79a15,15,0,0,1-2.4,2.76q-1,.84-2.58,2a11.4,11.4,0,0,1-6.87,1.92q-4.23,0-6.12-2.13a8.05,8.05,0,0,1-1.89-5.55,17.42,17.42,0,0,1,4.47-11.55q4.47-5.25,10.53-5.25A6.35,6.35,0,0,1,69,18.33a4.32,4.32,0,0,1,1.62,3.36,5.49,5.49,0,0,1-1.08,3.39,3.07,3.07,0,0,1-2.46,1.44q-2.7,0-2.7-2.22,0-.72,1.5-1.38a2.51,2.51,0,0,0,1.08-.9,2.89,2.89,0,0,0,.48-1.74q0-1.56-1.68-1.56-3.6,0-7.14,5.22a18.07,18.07,0,0,0-3.54,10.11q0,4.89,4.26,4.89,5.94,0,11.58-9.18Q72,28,72.78,26.7A4.74,4.74,0,0,1,73.65,25.44Z"/><path class="cls-1" d="M94.05,16.62l2.88.06a6.33,6.33,0,0,0,1.14-.06q-1.68,1.14-4.83,8t-3.15,9.81q0,1.8,1.2,1.8a4.06,4.06,0,0,0,2.13-1,12.35,12.35,0,0,0,2.31-2.25,33.89,33.89,0,0,0,2.07-3l1.92-3.12a5.29,5.29,0,0,1,.93-1.32q.36,0,.36,1.14a3.91,3.91,0,0,1-.66,2.16Q92.91,41.16,87.93,41.16q-3.36,0-3.36-5a18.23,18.23,0,0,1,.24-3q-5.64,8-10.74,8a2.88,2.88,0,0,1-2.43-1.26,6.22,6.22,0,0,1-.93-3.72,32.22,32.22,0,0,1,1.74-8.13,34.07,34.07,0,0,1,4.26-9.33A2.53,2.53,0,0,1,78,17.61a10.58,10.58,0,0,1,2.61-.21h2.88a38.87,38.87,0,0,0-3.24,5.52q-4,8.22-4,12.06,0,2.28,1.65,2.28t3.93-3.18a67.14,67.14,0,0,0,4.89-8.25q2.61-5.07,3-5.73Q92,16.62,94.05,16.62Z"/><path class="cls-1" d="M16.89,22.19s3.35.61,4.59,2.91a20.73,20.73,0,0,0,7.08-4.81A11.92,11.92,0,0,0,32.16,12,9.46,9.46,0,0,0,32,10.16a9.08,9.08,0,0,0-3.59-5.65A14.86,14.86,0,0,0,19,1.6a21.33,21.33,0,0,0-9.31,2s0,0,0,0a21,21,0,0,0-3.9,2.41Q0,10.54,0,16.51T6,25.9a24.62,24.62,0,0,0-2.36,1l2.95,2.14a25.34,25.34,0,0,1,2.65-1.17,13.71,13.71,0,0,1,6,3.15,1.24,1.24,0,0,1,.22.18q2.73,2.49,2.73,5.19T15.3,41.2a10.8,10.8,0,0,1-5.61,2.07v2.14A16.22,16.22,0,0,0,19.32,42a10.74,10.74,0,0,0,4.14-8.64,7.89,7.89,0,0,0-1.37-4.51h0a9.25,9.25,0,0,0-.51-1A23.09,23.09,0,0,0,20,25.68s-1-2-4.68-2.84a27.11,27.11,0,0,1-6.72-2.58,6.12,6.12,0,0,1-3.12-5.52A8.92,8.92,0,0,1,9.24,7.06a13.85,13.85,0,0,1,5.3-2.42,12.64,12.64,0,0,1,2.68-.28,10,10,0,0,1,6.63,2,6.36,6.36,0,0,1,2.37,5.07A8.38,8.38,0,0,1,26,13.51Q24.71,18.69,16.89,22.19Z"/><path class="cls-1" d="M112.5,22.87l2.43.05h.47a10.34,10.34,0,0,0-2,3.09c-.87,1.72-1.52,3-1.95,3.88A35.66,35.66,0,0,0,110,33.41a11.48,11.48,0,0,0-.78,3.6c0,.92.31,1.38,1,1.38a4.09,4.09,0,0,0,1.74-.88,10.44,10.44,0,0,0,1.85-1.76,25.25,25.25,0,0,0,1.62-2.38c.59-1,1.09-1.81,1.52-2.53a4.51,4.51,0,0,1,.74-1.07c.22,0,.33.3.33.88a3.34,3.34,0,0,1-.47,1.69c-1.37,2.26-2.49,4-3.38,5.19a17.59,17.59,0,0,1-3.21,3.31,5.72,5.72,0,0,1-3.41,1.5c-1.8,0-2.71-1.34-2.71-4a21.19,21.19,0,0,1,1-6.14,27,27,0,0,1,3.09-6.62,5.33,5.33,0,0,1-3.33,1.34,2.79,2.79,0,0,1-1.09-.24c-2.26,4.44-3.47,6.66-3.65,6.66s-.26-.26-.26-.78a6,6,0,0,1,.6-2.19c.39-.94.82-1.83,1.28-2.69s.71-1.33.74-1.43a2.88,2.88,0,0,1-1.71-2.76,2.75,2.75,0,0,1,.59-1.71,2,2,0,0,1,1.64-.76,2.35,2.35,0,0,1,1.72.66,2.68,2.68,0,0,0-.1.86,2.43,2.43,0,0,0,.93,2,3.53,3.53,0,0,0,2.26.74,2.65,2.65,0,0,0,.57-.05C110.23,23.67,111.36,22.87,112.5,22.87Z"/><path class="cls-1" d="M134.77,29.63c.19,0,.29.31.29.93a4.62,4.62,0,0,1-.76,2.21q-.77,1.29-1.5,2.43a29.46,29.46,0,0,1-2,2.66,14.23,14.23,0,0,1-2.42,2.43,10.17,10.17,0,0,1-6,2.19,7.38,7.38,0,0,1-4.88-1.55,5.8,5.8,0,0,1-1.86-4.73,13.51,13.51,0,0,1,3.57-9,10.73,10.73,0,0,1,8.33-4.14A5.08,5.08,0,0,1,131,24.18a3.47,3.47,0,0,1,1.28,2.69,4.89,4.89,0,0,1-2.52,4.28,10.78,10.78,0,0,1-5.95,1.62,6.35,6.35,0,0,1-3-.52,12.53,12.53,0,0,0-.9,4.28q0,4,3.37,4A7,7,0,0,0,127.42,39,18.14,18.14,0,0,0,131,35.51a39.23,39.23,0,0,0,3.4-5.55Q134.64,29.63,134.77,29.63Zm-5-3.76a1.2,1.2,0,0,0-1.33-1.38q-1.86,0-4.14,2.28c-1.53,1.53-2.29,2.76-2.29,3.72,0,.63.6,1,1.81,1a5.82,5.82,0,0,0,3.78-1.76A5.89,5.89,0,0,0,129.73,25.87Z"/></g><text class="cls-2" transform="translate(133.63 40.18)">.</text></g></g></svg>